<svg xmlns="http://www.w3.org/2000/svg" viewBox="0 0 447.12 435.98"><defs><style>.cls-1,.cls-3{fill:#fff;}.cls-1,.cls-2{fill-rule:evenodd;}.cls-2{fill:#008357;}.cls-4{fill:#f58220;}</style></defs><title>Asset 2</title><g id="Layer_2" data-name="Layer 2"><g id="Layer_1-2" data-name="Layer 1"><path class="cls-1" d="M0,214.6c0-84.21,68.51-152.84,152.72-153L399,61.16c14.24,0,25.63-3,33.86-8.95l14.27-10.3V226.68a153,153,0,0,1-152.5,153L82,380.38c-20.22,0-47.87,0-65.29,28.41L0,436Z"/><path class="cls-2" d="M399,70.16l-246.27.44A144,144,0,0,0,9,214.6V404.08c20-32.68,52.47-32.7,72.93-32.7l212.66-.7a144,144,0,0,0,143.53-144V59.5c-9.8,7.08-22.88,10.66-39.11,10.66Z"/><path class="cls-3" d="M135.29,205.14a67.1,67.1,0,0,1-12.3,4.15,61.42,61.42,0,0,1-15,2q-31,0-31-30.27V148.67H64v-5l38.47-39.19h3.26v24.29h27.4v19.91h-27.4v26a38.89,38.89,0,0,0,.56,7.33,7.45,7.45,0,0,0,3.15,4.66c1.72,1.24,4.34,1.87,7.84,1.87q6.85,0,18-5.74Z"/><path class="cls-3" d="M225,176.23h-57.1a20,20,0,0,0,8.2,12.11,24.75,24.75,0,0,0,14.82,4.7q14.49,0,32-8.13v17.77a88.25,88.25,0,0,1-15.25,5.93q-9,2.67-22.82,2.67-15,0-25.49-5.58a37.24,37.24,0,0,1-15.73-15.13,44.54,44.54,0,0,1-5.21-21.66,43.54,43.54,0,0,1,5.21-21.39,36.35,36.35,0,0,1,15.73-14.82q10.51-5.37,25.49-5.37a44.93,44.93,0,0,1,19.08,4.26,34.94,34.94,0,0,1,15.13,13.94q5.94,9.67,5.93,25Zm-26.92-14.17q0-7.81-3.86-12.47t-11.11-4.66a15.11,15.11,0,0,0-11.59,4.74q-4.42,4.74-4.42,12.39Z"/><path class="cls-3" d="M302.51,206.1q-3.58,1.35-7.57,2.51a69.2,69.2,0,0,1-9,1.91,71.78,71.78,0,0,1-10.87.76q-13.31,0-22.5-4.5a37.56,37.56,0,0,1-14.18-11.31,42.26,42.26,0,0,1-6.89-13.9,49,49,0,0,1-1.91-12.51,47.91,47.91,0,0,1,2-12.5,41.83,41.83,0,0,1,6.81-13.7q4.86-6.62,14.06-11.07t22.66-4.46a68.88,68.88,0,0,1,14.66,1.27A89.58,89.58,0,0,1,301.24,132v22.54q-14-4.45-21.91-4.46a21.53,21.53,0,0,0-13.58,4.62q-5.92,4.62-5.93,14.33a19.21,19.21,0,0,0,2.94,10.88,17.89,17.89,0,0,0,7.49,6.49,21.76,21.76,0,0,0,9.08,2.07,44,44,0,0,0,9.8-1.28c3.66-.84,8.12-2.07,13.38-3.66Z"/><path class="cls-3" d="M397,209.84H368.32V167.79a9.17,9.17,0,0,1,0-.92c0-.29,0-.91,0-1.87a23.3,23.3,0,0,0-2.47-10.67q-2.48-4.86-9.4-4.86a14.11,14.11,0,0,0-9.56,3.62,47.79,47.79,0,0,0-7.88,9.12v47.63H310.41V99.45h28.68v40.94q7.08-7.56,14-10.31a39.45,39.45,0,0,1,14.74-2.75q29.15,0,29.15,32.73Z"/><path class="cls-3" d="M102.2,312.39a66.89,66.89,0,0,1-11.88,3.85,61.25,61.25,0,0,1-14.49,1.85q-29.91,0-29.91-28.16V259.84H33.39v-4.67L70.52,218.7h3.15v22.61h26.45v18.53H73.67V284a34.75,34.75,0,0,0,.54,6.82,6.92,6.92,0,0,0,3,4.33c1.66,1.16,4.19,1.74,7.57,1.74q6.62,0,17.38-5.33Z"/><path class="cls-3" d="M191.13,313q-5.85,2.29-10.82,3.7a44.1,44.1,0,0,1-11.93,1.41c-4.4,0-7.47-.78-9.19-2.33a13.09,13.09,0,0,1-3.71-5.67,40.33,40.33,0,0,1-9.56,5.74q-5.26,2.26-13.79,2.26-8.22,0-13.3-2.85a16.31,16.31,0,0,1-7.12-7.19,20.76,20.76,0,0,1-2-8.93,18.35,18.35,0,0,1,3.52-11.53,26.19,26.19,0,0,1,9.46-7.45,121.5,121.5,0,0,1,15.71-6l8.41-2.71q2.85-.92,4.26-1.44a26.62,26.62,0,0,0,3-1.33q0-5.49-2.23-8.6t-9.63-3.12a34.93,34.93,0,0,0-16.23,3.86,56.65,56.65,0,0,0-13.72,9.93V250.27a48.89,48.89,0,0,1,10.75-5.81A63.11,63.11,0,0,1,135,241.08,73.34,73.34,0,0,1,147.77,240q16.38,0,24.65,6.34t8.26,17.45v29.13a18.4,18.4,0,0,0,.78,6.19,2.85,2.85,0,0,0,2.85,2q2.52,0,6.82-2.15ZM154,298.53V280.66q-9.5,3.85-13.86,6.93a9.67,9.67,0,0,0-4.38,8.34,7.43,7.43,0,0,0,2.19,5.78,7.27,7.27,0,0,0,5.08,2,11,11,0,0,0,5.45-1.52A47.81,47.81,0,0,0,154,298.53Z"/><path class="cls-3" d="M225.91,316.76H199.15V218.7h26.76Z"/><path class="cls-3" d="M323.92,316.76H290.05l-24-35.8v35.8h-27V218.7h27v55.59l21.46-33h32l-28.5,35.2Z"/><path class="cls-3" d="M389.2,295.43A22,22,0,0,1,381.3,313q-7.91,6.75-23.48,6.74a68.27,68.27,0,0,1-15.5-1.58,126.16,126.16,0,0,1-14.8-4.51V293.89A100.14,100.14,0,0,0,339.7,300,30,30,0,0,0,351,302.07q10.4,0,10.4-5.71a4.73,4.73,0,0,0-1.5-3.43,21.47,21.47,0,0,0-5.24-3.39c-2.5-1.26-5.82-2.77-10-4.52a40,40,0,0,1-13.11-9.09,19.56,19.56,0,0,1-5.39-14,20.05,20.05,0,0,1,3.58-11.26,25.85,25.85,0,0,1,10.83-8.83q7.26-3.42,17.51-3.43c1.64,0,3.74.12,6.28.35a64.52,64.52,0,0,1,9.64,1.81,52.43,52.43,0,0,1,11.07,4.16V264c-1.65-1-3-1.8-4.13-2.46a39.7,39.7,0,0,0-4.43-2.24,43.07,43.07,0,0,0-6.52-2.2,30.71,30.71,0,0,0-7.67-1q-4.78,0-6.55,1.85a5.4,5.4,0,0,0-1.78,3.7,4.82,4.82,0,0,0,1.85,3.59q1.86,1.65,8.25,4.12A75.28,75.28,0,0,1,379,276.66a23.31,23.31,0,0,1,7.9,8.21A22.36,22.36,0,0,1,389.2,295.43Z"/><path class="cls-3" d="M276.78,0H169.06V109h109V0Z"/><polygon class="cls-4" points="175.79 6.74 271.32 6.74 271.32 102.26 175.79 102.26 175.79 6.74 175.79 6.74"/><path class="cls-3" d="M263.74,97.59a2.73,2.73,0,1,1,2.73,2.69,2.69,2.69,0,0,1-2.73-2.69Zm2.73,2.24a2.24,2.24,0,1,0-2.19-2.24,2.17,2.17,0,0,0,2.19,2.24Zm-.56-.68h-.48v-3.1h1.19c.73,0,1.09.27,1.09.88a.81.81,0,0,1-.8.85l.87,1.37h-.52l-.81-1.35h-.55v1.35Zm.55-1.75c.41,0,.76,0,.76-.5s-.35-.45-.67-.45h-.65v1Z"/><path class="cls-3" d="M204.56,54.81a2.66,2.66,0,0,0,.6,3.46l14.61,14.61a2.66,2.66,0,0,0,3.46.6l1.64,1.63c-6.5,5.43-14.11,3.4-19.72-2.21s-7.65-13.23-2.22-19.73l1.63,1.64Zm19.94,17.4a2.66,2.66,0,0,0-.6-3.46L209.29,54.14a2.65,2.65,0,0,0-3.46-.59l-1.63-1.64c6.5-5.43,14.1-3.4,19.72,2.22s7.64,13.22,2.21,19.72l-1.63-1.64Z"/><path class="cls-3" d="M255.6,41.79a1.13,1.13,0,0,0-1.39-.14c-1.29.68-1.43.48-2.47-.56L237,26.31c-1.05-1-1.25-1.18-.57-2.48a1.11,1.11,0,0,0-.14-1.38c-.82-.82-1.8.05-1.91.16L226.9,30,233,41.29l-.06.05L221.25,35.7l-7.15,7.14c-.33.34-1.18,1.19-.31,2.06.68.68,1.5,0,1.86-.33s1-.23,1.64-.06a8.14,8.14,0,0,1,1.71.71L242.34,56.8l.82-.82-11.42-21.1L244.84,48c1,1.05,1.24,1.19.56,2.48a1.1,1.1,0,0,0,.15,1.38c.81.82,1.8-.05,1.91-.17l8-8c.12-.11,1-1.1.17-1.92Z"/><path class="cls-3" d="M233.55,56.67l-4.85-4.85-6.23-3.08-.05.06,9.5,9.5c3.08,4,.17,4.68,1.39,5.89.87.87,2-.33,2.28-.65l3.21-3.2c.3-.31,1.52-1.4.64-2.28-1.21-1.21-1.91,1.69-5.89-1.39Z"/><path class="cls-3" d="M218.24,86.2c2.67-2.73,6.78-3.1,11.07.8,3.9,3.55,3.42,8.43.79,11.06l-.92-.92c.84-1.09,0-2-.62-2.65l-6.75-6.75c-.6-.6-1.55-1.46-2.65-.62l-.92-.92Z"/><path class="cls-3" d="M224.15,80.29l4.19-4.19L240.2,88,236,92.15c-.06.06-.62.55-1.08.1a.62.62,0,0,1-.07-.78c.38-.73.27-.81-.32-1.4l-8.31-8.3c-.59-.59-.67-.7-1.39-.32a.63.63,0,0,1-.78-.08c-.46-.46,0-1,.09-1.08Zm4.9-4.9,3.54-3.53,3.21,3.21c.09.09.37.4-.11.88-.27.27-.5.19-.82,0a4.32,4.32,0,0,0-4.9.33l-.92-.92ZM240,86.33a4.58,4.58,0,0,0,.4-5c-.13-.35-.29-.7,0-1a.64.64,0,0,1,1,.08l3.17,3.18-3.65,3.64-.92-.92Zm-5.64-5.64a2.41,2.41,0,0,0-.29-2.51c-.19-.35-.35-.7,0-1,.49-.49,1,.16,1.1.29l3.43,3.42c.13.13.78.62.29,1.11-.34.34-.69.18-1,0a2.41,2.41,0,0,0-2.51-.29l-1-1Z"/><path class="cls-3" d="M238.71,65.74a8.53,8.53,0,0,1,3.73-2.56,5.23,5.23,0,0,1,6.14,6.15A8.36,8.36,0,0,1,246,73.06l-.92-.91c.76-1.12.16-1.82-.62-2.59l-2.39-2.4c-.71-.71-1.5-1.22-2.48-.5l-.91-.92Zm-2.82,6.37c-.6-.58-.67-.69-1.4-.31a.62.62,0,0,1-.78-.09c-.46-.45,0-1,.09-1.08l4.2-4.18,10.08,10.09c.58.58.66.7,1.39.31a.63.63,0,0,1,.78.08c.46.46,0,1-.1,1.08l-4.48,4.49a.65.65,0,0,1-.95,0,.57.57,0,0,1-.13-.74c.39-.73.19-.73-.4-1.31l-8.3-8.31Z"/><path class="cls-3" d="M248.76,57.05a1.49,1.49,0,0,0,.33,2l8.21,8.21a1.51,1.51,0,0,0,1.95.34l.92.92c-3.66,3.06-7.94,1.92-11.09-1.24s-4.31-7.43-1.24-11.1l.92.92ZM260,66.83a1.5,1.5,0,0,0-.33-2l-8.21-8.21a1.5,1.5,0,0,0-1.95-.33l-.92-.92c3.66-3.06,7.94-1.92,11.1,1.23s4.3,7.44,1.24,11.1l-.93-.92Z"/><path class="cls-3" d="M187.24,42.9l3.65-3.65,9.48,9.48c.55.55.63.66,1.31.3a.57.57,0,0,1,.73.07c.44.44,0,1-.09,1l-4.21,4.21c-.07.06-.59.53-1,.09a.57.57,0,0,1-.07-.73c.36-.68.25-.76-.3-1.31l-9.48-9.48Zm9.94-3a.63.63,0,0,1-.06.92c-.41.42-.88.11-1.25-.18a4.76,4.76,0,0,0-3.44-1.2l-.87-.87,2.15-2.14,3.47,3.47Zm-12.76,5.81,2.15-2.14.86.86a4.83,4.83,0,0,0,1.21,3.44c.28.37.6.84.18,1.25a.63.63,0,0,1-.92.06l-3.48-3.47Z"/><path class="cls-3" d="M208.12,41c.55.55.63.66,1.31.3a.6.6,0,0,1,.73.07c.43.44,0,1-.09,1l-4.21,4.22c-.07,0-.59.52-1,.09a.59.59,0,0,1-.07-.74c.36-.68.25-.76-.3-1.31l-7.81-7.81c-.55-.55-.63-.65-1.31-.3a.57.57,0,0,1-.73-.07c-.44-.43,0-1,.09-1l4.21-4.22c.07-.06.59-.52,1-.09a.57.57,0,0,1,.07.73c-.36.69-.25.76.3,1.31L208.12,41Zm-1.58-5.54-1.31,1.31-.86-.87,1.31-1.31-3.39-3.38c-.55-.55-.62-.66-1.31-.3a.57.57,0,0,1-.73-.07c-.43-.43,0-1,.09-1l4.22-4.21c.06-.06.58-.53,1-.09a.59.59,0,0,1,.08.73c-.36.68-.26.76.29,1.31l7.81,7.81c.55.55.63.65,1.31.3a.57.57,0,0,1,.73.07c.44.43,0,1-.08,1L211.49,41c-.06.06-.59.52-1,.09a.56.56,0,0,1-.08-.73c.36-.69.25-.76-.3-1.31l-3.56-3.56Z"/><path class="cls-3" d="M206,24.18l3.94-3.93L221.05,31.4l-3.94,3.93c-.06.06-.58.52-1,.09a.59.59,0,0,1-.08-.73c.36-.69.26-.76-.3-1.31l-7.8-7.81c-.56-.55-.63-.66-1.32-.3a.59.59,0,0,1-.73-.08c-.43-.43,0-1,.09-1Zm4.61-4.6,3.32-3.33,3,3c.07.07.34.37-.11.82-.25.25-.47.18-.77,0a4.06,4.06,0,0,0-4.61.31l-.86-.86Zm10.28,10.28a4.29,4.29,0,0,0,.37-4.69c-.12-.33-.27-.66,0-.93a.6.6,0,0,1,.94.08l3,3-3.43,3.42-.86-.86Zm-5.3-5.3a2.27,2.27,0,0,0-.27-2.36c-.18-.33-.33-.65,0-1,.46-.46.93.15,1.05.27l3.22,3.22c.12.12.73.58.26,1-.31.31-.64.17-1,0a2.23,2.23,0,0,0-2.35-.27l-.92-.92Z"/><path class="cls-3" d="M214.48,82.91a1.1,1.1,0,0,0-1.38-.15c-1.3.68-1.44.48-2.48-.56L195.84,67.42c-1-1-1.24-1.18-.56-2.48a1.1,1.1,0,0,0-.15-1.38c-.81-.81-1.8.06-1.91.17l-8,8c-.12.12-1,1.1-.17,1.92a1.11,1.11,0,0,0,1.38.14c1.29-.67,1.43-.48,2.47.57l6.41,6.4-2.47,2.47,1.63,1.64L197,82.35l6.75,6.74c1,1,1.24,1.19.56,2.48a1.11,1.11,0,0,0,.14,1.38c.82.82,1.81,0,1.92-.16l8-8c.11-.11,1-1.09.16-1.91Z"/><path class="cls-3" d="M203.85,93.55a1.12,1.12,0,0,0-1.39-.15c-1.29.68-1.43.48-2.48-.57L185.2,78.06c-1-1-1.24-1.18-.56-2.48a1.09,1.09,0,0,0-.15-1.38c-.81-.82-1.79.06-1.91.17l-6.78,6.78V84.4h0c1.3-.68,1.44-.48,2.48.57l14.78,14.77c1,1,1.24,1.19.57,2.48a.33.33,0,0,0,0,.06h3.25l6.8-6.81c.11-.11,1-1.1.17-1.91Z"/><path class="cls-3" d="M224.22,101.92c-.06.11-.12.23-.17.34h1.85l3.49-3.48L217.53,86.92,213.47,91c-.32.31-.67.76-.26,1.17s.75.14,1.18-.07.79.26,1,.5l8.31,8.3c.23.24.7.64.49,1Z"/><path class="cls-3" d="M256.17,50.12l-.92-.92L253,51.48l3.7,3.69a.66.66,0,0,0,1-.06c.44-.44.12-.93-.19-1.33a5.1,5.1,0,0,1-1.28-3.66Z"/><path class="cls-3" d="M265.14,46.09c.4.3.89.63,1.33.19a.67.67,0,0,0,.07-1l-3.7-3.7-2.28,2.29.92.92a5.06,5.06,0,0,1,3.66,1.28Z"/><path class="cls-3" d="M271.32,55c-.73.38-.81.27-1.39-.32L259.85,44.6,256,48.48l10.09,10.09c.58.59.69.67.31,1.39a.63.63,0,0,0,.08.78c.46.46,1,0,1.08-.1l3.8-3.79V55Z"/><path class="cls-3" d="M255,13.94c-.6.59-.31,1.21,0,1.83.82,1.32,1.39,3,.52,4.45L257.32,22c1.49-.87,3.12-.31,4.45.51.62.33,1.24.62,1.83,0,.87-.87-.28-1.75-.51-2L257,14.45c-.22-.23-1.1-1.38-2-.51Z"/><path class="cls-3" d="M237.45,19.5c-.11.11-1,1.1-.17,1.91a1.09,1.09,0,0,0,1.38.14c1.3-.67,1.44-.47,2.49.57l14.77,14.77c1.05,1,1.24,1.19.57,2.49a1.12,1.12,0,0,0,.14,1.38c.82.81,1.8-.06,1.92-.17L266,33.16l-21.1-21.09-7.43,7.43Z"/><path class="cls-3" d="M271.32,23l-3.24-3.24a1.13,1.13,0,0,0-1.78-.15c-.51.51-.22,1.12,0,1.75a8.15,8.15,0,0,1-.69,8.87l1.63,1.63,4.08-4.07V23Z"/><path class="cls-3" d="M258.15,10.25l-3.52-3.52h-4.41l-4.08,4.07,1.64,1.64a7.66,7.66,0,0,1,8.71-.58c.56.28,1,.42,1.46-.06.85-.84.34-1.41.2-1.55Z"/></g></g></svg>